<svg width="22" height="20" viewBox="0 0 22 20" fill="none" xmlns="http://www.w3.org/2000/svg">
<g clip-path="url(#clip0_80_50)">
<path d="M10.5168 -0.000701904L8.03511 7.63747H-0.00088501L6.50065 12.3621L4.01901 20.004L10.5205 15.2832L17.0183 20.004L14.5367 12.3659L21.0382 7.63747H13.0022L10.5168 -0.000701904Z" fill="white"/>
<path d="M4.70448 11.0547L6.50036 12.3618L4.01871 20.0038L10.5202 15.283L17.018 20.0038L14.5364 12.3656L16.336 11.0585H12.3123L13.7634 15.5293L10.5165 13.1689L7.26948 15.5293L8.72058 11.0585H4.70448V11.0547Z" fill="#ACACAC"/>
<path d="M10.5168 -0.000701904L8.03511 7.63747H-0.00088501L2.35195 9.35H9.27783L10.5168 5.5347L11.7557 9.35H18.6816L21.0344 7.64126H12.9984L10.5168 -0.000701904Z" fill="#ACACAC"/>
</g>
<defs>
<clipPath id="clip0_80_50">
<rect width="21.035" height="20" fill="white"/>
</clipPath>
</defs>
</svg>
