<svg width="510" height="522" viewBox="0 0 510 522" fill="none" xmlns="http://www.w3.org/2000/svg">
<circle cx="255" cy="255" r="250" stroke="#121212" stroke-width="10"/>
<mask id="mask0_213_2" style="mask-type:alpha" maskUnits="userSpaceOnUse" x="56" y="79" width="367" height="444">
<path d="M220.426 289.175C221.465 290.831 222.453 292.418 223.395 293.949C239.15 319.559 244.392 349.957 243.165 380V380V418.032V418.032C243.465 442.656 235.201 466.549 220.426 486.25V486.25" stroke="black" stroke-width="10" stroke-linecap="round"/>
<path d="M402.34 440.771V440.771C387.58 421.091 379.601 397.154 379.601 372.553V364.672C379.601 344.894 384.047 325.416 391.805 307.222C399.201 289.876 404.855 274.846 410.905 256.646C415.413 243.085 417.5 228.847 417.5 214.557V207.517C417.5 177.132 406.253 147.822 385.926 125.237L381.193 119.978C360.881 97.4083 331.943 84.5208 301.579 84.5208V84.5208C278.421 84.5208 255.576 91.655 237.904 106.622C231.935 111.677 226.314 116.727 220.539 122.212C205.47 136.528 197.686 156.761 197.686 177.546V177.546C197.686 186.217 199.084 194.832 201.826 203.058L202.308 204.505C209.108 224.904 222.98 242.198 241.418 253.26L250.744 258.856" stroke="black" stroke-width="10" stroke-linecap="round"/>
<path d="M197.686 175.478L90.0163 232.902C86.0077 235.04 82.1823 237.527 78.7479 240.501C73.4524 245.086 69.795 248.83 65.8379 253.397C62.8186 256.881 61.25 261.377 61.25 265.987V265.987C61.25 271.138 63.1498 276.199 67.0222 279.595C70.1353 282.325 73.0327 284.321 76.4134 286.028C81.2635 288.477 86.7647 289.175 92.1979 289.175H121.888H243.165" stroke="black" stroke-width="10" stroke-linecap="round"/>
<path d="M137.048 205.798L163.676 218.478C167.104 220.11 170.853 220.957 174.65 220.957V220.957C185.496 220.957 195.158 214.102 198.742 203.865L200.718 198.218" stroke="black" stroke-width="10"/>
<path d="M294 168C294 172.11 294 175.013 294 177.017C294 179.778 296.239 179.987 299 179.987V179.987C301.761 179.987 304 177.748 304 174.987V168" stroke="black" stroke-width="10"/>
<path d="M236.471 399.278L311.028 483.65C316.103 489.393 313.897 498.435 306.747 501.195L259.586 519.401C255.499 520.979 250.865 519.981 247.79 516.861L189.271 457.482C187.113 455.292 184.008 454.317 180.984 454.879L180.333 455C175.385 455.921 170.362 456.384 165.329 456.384H164.088C160.545 456.384 157.009 456.078 153.519 455.469L152.636 455.315C147.549 454.428 142.59 452.925 137.866 450.838C132.533 448.482 127.621 445.27 123.325 441.328L115.081 433.765C114.793 433.5 114.524 433.215 114.277 432.911L110.499 428.268C106.425 423.258 103.536 417.392 102.049 411.109C101.15 407.309 104.751 403.986 108.467 405.188L132.915 413.099L152.362 416.846C156.568 417.657 161.275 417.875 164.725 415.337C168.709 412.408 171.872 408.427 173.44 403.738L183.028 375.068C183.279 374.318 183.407 373.532 183.407 372.741V370.36C183.407 367.19 182.564 364.076 180.965 361.338C178.198 356.6 173.874 352.968 168.729 351.063L130.796 337.012C128.405 336.126 127.738 333.062 129.543 331.262C131.749 329.063 134.512 327.507 137.536 326.76L153.077 322.92L155.245 322.611C167.321 320.892 179.627 321.872 191.278 325.482C196.449 327.083 201.313 329.541 205.67 332.753L208.133 334.568C213.108 338.236 217.551 342.577 221.335 347.465L221.967 348.282C226.992 354.775 230.582 362.261 232.499 370.244C233.772 375.549 234.416 380.986 234.416 386.442V393.848C234.416 395.848 235.147 397.78 236.471 399.278Z" fill="black" stroke="black" stroke-width="4"/>
</mask>
<g mask="url(#mask0_213_2)">
<circle cx="255" cy="255" r="250" fill="#121212"/>
<path d="M494 254.5C494 387.344 386.753 495 254.5 495C122.247 495 15 387.344 15 254.5C15 121.656 122.247 14 254.5 14C386.753 14 494 121.656 494 254.5Z" stroke="#F5F5F5" stroke-width="10"/>
</g>
</svg>
