<svg width="20" height="20" viewBox="0 0 20 20" fill="none" xmlns="http://www.w3.org/2000/svg">
<path fill-rule="evenodd" clip-rule="evenodd" d="M13.632 6.71591C13.3207 6.44304 12.8731 6.44928 12.6163 6.52855C12.7845 6.32195 13.1764 6.15256 13.2919 6.132C13.3798 6.16497 13.6319 6.42411 13.6319 6.71588L13.632 6.71591ZM14.6257 5.58599C14.421 4.49109 11.8764 5.21654 10.595 4.75148C10.5704 5.07066 10.9895 5.58209 11.3903 5.77138C10.7051 6.36602 10.09 7.56411 9.96587 9.02783C9.84213 7.56411 9.22695 6.36602 8.54179 5.77138C8.94261 5.58209 9.36201 5.07066 9.33712 4.75148C8.05568 5.21654 5.51106 4.49109 5.30602 5.58599C5.26289 5.81769 5.37437 6.17086 5.49484 6.27237C5.51636 6.19893 5.62887 5.95871 5.98357 5.90485C7.77632 5.63398 9.27307 8.39699 7.92202 9.51413C7.90144 9.53109 7.91297 9.56246 7.94089 9.56246H11.9915C12.0191 9.56246 12.0307 9.53109 12.0104 9.51413C10.659 8.39699 12.1558 5.63398 13.9485 5.90485C14.3035 5.95871 14.4156 6.19893 14.4373 6.27234C14.5577 6.17086 14.6692 5.81772 14.6257 5.58596V5.58599ZM15.0617 3.07299C15.0295 2.96955 16.0807 2.96696 16.0807 3.62487C16.0807 4.06582 15.4519 4.27467 15.4519 4.73224C15.4519 4.94536 15.6812 5.10169 15.7516 5.10169C15.5896 4.36704 16.2593 4.75148 16.4401 4.88888C16.0807 3.90095 16.8897 3.90718 16.81 3.45419C16.7546 3.1376 16.0515 3.23325 15.797 3.07299C15.3455 2.78874 14.8113 1.68267 14.4592 2.78874C15.1155 3.39809 14.7336 4.2949 13.9005 4.2949C13.9005 4.2949 13.8958 4.42641 13.9034 4.43686C14.8972 4.38821 15.2436 3.65786 15.0618 3.07299H15.0617ZM3.46782 4.88888C3.6487 4.75148 4.31824 4.36704 4.1567 5.10169C4.22668 5.10169 4.45595 4.94536 4.45595 4.73224C4.45595 4.27467 3.82717 4.06582 3.82717 3.62487C3.82717 2.96693 4.87835 2.96955 4.84613 3.07299C4.66464 3.65783 5.0111 4.38824 6.00481 4.43686C6.0121 4.42641 6.00746 4.2949 6.00746 4.2949C5.17463 4.2949 4.79271 3.39803 5.44872 2.78874C5.09664 1.68267 4.56244 2.78874 4.11089 3.07299C3.85642 3.23328 3.15329 3.1376 3.09788 3.45419C3.01854 3.90718 3.82714 3.90098 3.46779 4.88888H3.46782ZM6.28949 6.71588C6.60103 6.44301 7.04866 6.44925 7.30518 6.52852C7.1376 6.32192 6.7451 6.15252 6.62994 6.13197C6.542 6.16494 6.28952 6.42408 6.28952 6.71585L6.28949 6.71588ZM10.4387 0.590955L9.95393 -9.15527e-05L9.46919 0.590955L9.95396 1.213L10.4388 0.590955H10.4387ZM13.2059 2.37816L12.8612 1.9581L12.5168 2.37816L12.8612 2.78871L13.2059 2.37813V2.37816ZM16.0021 14.5195L15.5651 14.0571L15.1281 14.5195L15.5651 14.9252L16.0021 14.5195V14.5195ZM7.39141 2.3781L7.04663 1.95804L6.70222 2.3781L7.04663 2.78868L7.39138 2.3781H7.39141ZM6.40394 4.4368H7.68969C8.77068 4.4368 9.25714 3.77331 9.40411 3.19792H10.5041C10.6511 3.77334 11.1371 4.43683 12.2185 4.43683H13.5043C13.5043 4.43683 13.7292 4.13168 13.7856 3.98059C13.9887 3.43685 13.7292 3.18326 13.3506 3.18326L12.8612 3.6268L12.3718 3.18326C11.9932 3.18326 11.7337 3.43685 11.9368 3.98059C11.9627 4.05014 12.0247 4.15223 12.0834 4.24198C11.6272 4.1793 11.0449 3.86702 10.9171 3.19792C10.9171 3.19792 11.2542 2.66238 11.3389 2.44567C11.6428 1.66636 11.2546 1.34778 10.6869 1.34778L9.9539 2.20942L9.22099 1.34778C8.65327 1.34778 8.26505 1.66633 8.56932 2.44567C8.65365 2.66241 8.99107 3.19795 8.99107 3.19795C8.86299 3.86705 8.28068 4.17933 7.82444 4.24202C7.88351 4.15227 7.94522 4.05014 7.9711 3.98062C8.17381 3.43688 7.91503 3.18329 7.53608 3.18329L7.04669 3.62683L6.55731 3.18329C6.17841 3.18329 5.91958 3.43688 6.12234 3.98062C6.17872 4.13171 6.40403 4.43686 6.40403 4.43686L6.40394 4.4368ZM19.697 8.42238C19.4488 8.54805 17.9929 9.23013 16.1278 8.97784C16.1471 8.88887 16.1635 8.79929 16.1769 8.70925C17.4182 8.56074 18.4272 8.35025 19.0702 7.99256C19.8032 7.58459 20.1237 6.61075 19.7537 5.88621C19.7442 5.86793 19.7176 5.86469 19.7043 5.87997C19.5016 6.11336 18.2268 7.50008 16.2184 7.93118C16.2133 7.82716 16.2037 7.7234 16.1899 7.62018C17.1653 7.06696 18.1177 6.42954 18.5712 5.84669C19.2568 4.96547 19.1937 3.84151 18.5414 3.26839C18.5346 3.26258 18.5257 3.25997 18.5168 3.26123C18.508 3.26248 18.5001 3.26748 18.4952 3.27494C18.2889 3.61532 16.3571 6.73765 14.2362 8.08552C14.2104 8.10207 14.1843 8.11829 14.158 8.13417C14.0972 8.17106 14.0906 8.25002 14.1424 8.29701C14.3869 8.51861 14.5389 8.82703 14.5389 9.16941C14.5389 9.76467 14.08 10.2598 13.4734 10.3671C13.1652 10.4268 12.7202 10.4095 12.2928 10.2683C12.2736 10.262 12.2537 10.2748 12.2537 10.294V12.1795C12.2537 12.2098 12.2998 12.2173 12.3108 12.1882C12.5705 11.4999 13.3483 11.3537 13.6884 11.3537C13.8108 12.0893 14.0295 12.6987 14.3135 13.0267C14.776 13.5596 15.5312 13.5521 15.8587 13.1836C15.8641 13.1775 15.8664 13.1693 15.865 13.1613C15.8636 13.1533 15.8586 13.1463 15.8514 13.1425C15.659 13.0319 14.558 12.356 14.3377 11.2483C14.4247 11.2183 14.5096 11.1843 14.5909 11.1442C14.9462 11.7323 15.4635 12.2561 15.8799 12.4562C16.5794 12.7917 17.2198 12.6285 17.5038 12.1373C17.5141 12.12 17.5015 12.0985 17.4806 12.0965C17.0479 12.0619 15.72 11.6814 15.1546 10.7542C15.2193 10.6948 15.2827 10.6328 15.3418 10.5668C15.9333 11.0172 16.7699 11.4154 17.3688 11.4966C18.0695 11.5919 18.8635 11.3684 18.8828 10.5535C18.8831 10.5371 18.8685 10.5237 18.8513 10.5248C18.6021 10.5397 16.9527 10.6116 15.7774 9.93693C15.8182 9.85932 15.8563 9.78029 15.8916 9.69999C15.8916 9.69999 17.6674 10.1197 18.5088 9.98065C19.345 9.84263 19.8348 9.21927 19.7402 8.44386C19.7375 8.42453 19.715 8.41315 19.697 8.42228L19.697 8.42238ZM4.01627 9.70008C4.05162 9.78039 4.08979 9.85942 4.13072 9.93703C2.95583 10.6113 1.30709 10.5401 1.05692 10.5249C1.03934 10.5238 1.02474 10.5379 1.02505 10.5539C1.0447 11.3685 1.83835 11.592 2.53908 11.4967C3.1377 11.4155 3.97452 11.0173 4.56609 10.5669C4.6255 10.6329 4.68856 10.6948 4.7532 10.7543C4.18751 11.6814 2.85997 12.062 2.42728 12.0966C2.40639 12.0985 2.3941 12.1201 2.40408 12.1374C2.68811 12.6285 3.32849 12.7917 4.02828 12.4562C4.44438 12.2561 4.96164 11.7323 5.31702 11.1443C5.3986 11.1844 5.48355 11.2183 5.57015 11.2483C5.34983 12.356 4.24891 13.0319 4.05644 13.1425C4.04933 13.1464 4.04438 13.1534 4.04296 13.1614C4.04155 13.1693 4.04382 13.1776 4.04914 13.1837C4.37664 13.5522 5.13219 13.5596 5.59466 13.0267C5.87876 12.6987 6.09705 12.0894 6.21948 11.3538C6.5599 11.3538 7.3373 11.5 7.5971 12.1883C7.60839 12.2173 7.65448 12.2098 7.65448 12.1795V10.294C7.65448 10.2748 7.63428 10.2621 7.61504 10.2683C7.18768 10.4095 6.74273 10.4269 6.43481 10.3671C5.82796 10.2598 5.36907 9.7647 5.36907 9.16941C5.36907 8.827 5.52135 8.51827 5.76556 8.29667C5.81763 8.24999 5.81068 8.17099 5.75027 8.13413C5.72375 8.11825 5.69743 8.10203 5.67131 8.08549C3.55174 6.7383 1.62096 3.61826 1.41293 3.27553C1.40326 3.25954 1.38006 3.25629 1.36578 3.26867C0.714452 3.8421 0.651084 4.96575 1.33659 5.84663C1.79017 6.42948 2.7424 7.0669 3.71761 7.62011C3.70386 7.72333 3.69445 7.82708 3.68942 7.93109C1.68268 7.5003 0.408871 6.11582 0.204143 5.88087C0.190546 5.86487 0.163291 5.86815 0.154029 5.88642C-0.2152 6.61128 0.105287 7.5845 0.837601 7.99246C1.48063 8.35015 2.48965 8.56065 3.73093 8.70915C3.74434 8.7992 3.76071 8.88878 3.78002 8.97775C1.91694 9.22972 0.461636 8.54927 0.211471 8.42259C0.192885 8.41315 0.170307 8.4249 0.167999 8.44449C0.0738212 9.21993 0.563174 9.84263 1.39933 9.98065C2.24045 10.1197 4.01627 9.69999 4.01627 9.69999V9.70008ZM15.5651 15.5208L14.918 15.0117C14.6599 15.1654 14.4701 15.4096 14.3964 15.6958C14.0072 15.7503 12.9461 15.5147 13.0492 15.3584C14.2123 13.7226 13.3227 12.7487 12.2536 12.8029V13.9015C12.2536 14.2543 11.9457 14.5401 11.5664 14.5401H10.8282C10.2986 14.5401 9.9539 15.0725 9.9539 15.0725C9.9539 15.0725 9.60921 14.5401 9.07963 14.5401H8.34136C7.96184 14.5401 7.65458 14.2543 7.65458 13.9015V12.8029C6.5855 12.7488 5.69523 13.7226 6.85858 15.3584C6.96078 15.5131 5.87012 15.7608 5.3585 15.6981C5.22378 15.5584 5.02931 15.4703 4.81164 15.4703C4.71911 15.4703 4.62732 15.4868 4.54055 15.519C4.54055 15.519 2.53019 13.6156 2.49336 13.597L2.50995 13.5585C2.6244 13.3444 2.44923 13.111 2.33843 13.1274C2.46713 12.973 2.47315 12.2971 1.75908 12.1407C1.77998 12.2765 1.79058 12.5536 1.79058 12.5536C1.79058 12.5536 1.23948 12.2556 0.962745 12.5128C0.719566 12.8007 1.05702 13.3228 1.05702 13.3228C1.05702 13.3228 0.774981 13.3297 0.635959 13.3179C0.840376 14.0092 1.52588 13.9602 1.6742 13.8238C1.66453 13.9338 1.91245 14.0904 2.12245 13.9648L2.21469 13.9201C2.23097 13.9419 4.18894 15.7918 4.18894 15.7918C4.09901 15.9253 4.05622 16.0891 4.08572 16.2637C4.13219 16.5366 4.35952 16.7627 4.64986 16.8215C4.85486 16.8626 5.04765 16.8228 5.20226 16.7324L5.72056 17.2134C5.76671 17.2552 5.82908 17.2813 5.89871 17.2764C6.02548 17.2679 6.12038 17.1651 6.11077 17.0473C6.10678 16.9941 6.07959 16.9485 6.04207 16.9139C6.03378 16.9047 5.51417 16.4223 5.51417 16.4223C5.94281 16.1217 6.74149 15.91 7.40441 15.91C7.52089 15.91 7.57562 15.8114 7.53548 15.7147C7.23517 14.9925 7.88089 14.4694 8.5488 14.8953C8.84016 15.081 9.13614 15.4468 9.35911 16.0571C8.26315 16.3225 6.88718 17.0535 6.60879 17.8515C6.50161 18.1596 6.85565 18.5796 7.28566 18.6642C7.29327 18.6658 7.30124 18.6644 7.30779 18.6602C7.31433 18.6559 7.31891 18.6493 7.32049 18.6416C7.54515 17.4504 8.82622 16.5626 9.49283 16.4118C9.52635 16.5016 9.51538 16.4726 9.5489 16.562C8.82292 16.9053 8.11883 17.6295 7.91775 18.4904C7.8255 18.8847 8.26515 19.2401 8.62814 19.3374C8.64638 19.3423 8.66431 19.3296 8.66531 19.3119C8.73432 18.2232 9.2151 17.2986 9.64576 16.8779C9.65756 16.9601 9.66642 17.0427 9.67233 17.1256C9.67233 17.1256 9.23138 18.3544 9.23138 19.2509C9.23138 19.668 9.85118 19.9591 9.94277 19.9999C10.0572 19.9591 10.6767 19.668 10.6767 19.2509C10.6767 18.3543 10.2357 17.1256 10.2357 17.1256C10.2418 17.0427 10.2507 16.9601 10.2626 16.8779C10.693 17.2986 11.1741 18.2228 11.2428 19.3116C11.2438 19.3292 11.262 19.3423 11.2799 19.3374C11.6432 19.2402 12.0826 18.8847 11.9906 18.4905C11.7892 17.6295 11.0855 16.9054 10.3595 16.562C10.3926 16.4726 10.3817 16.5016 10.4152 16.4119C11.0822 16.5627 12.3629 17.4503 12.5876 18.6416C12.5892 18.6492 12.5938 18.6559 12.6003 18.6601C12.6068 18.6643 12.6148 18.6658 12.6224 18.6641C13.0521 18.5796 13.4068 18.1596 13.2989 17.8515C13.0212 17.0535 11.6449 16.3225 10.549 16.0571C10.7723 15.4469 11.0682 15.081 11.3595 14.8953C12.0271 14.4694 12.6728 14.9926 12.3725 15.7148C12.3324 15.8114 12.3868 15.91 12.5036 15.91C13.2534 15.91 14.1772 16.1809 14.5428 16.5441C14.7764 16.8946 15.2081 17.1188 15.6952 17.0708C16.2486 17.0167 16.6999 16.6009 16.7623 16.0869C16.8167 15.6365 16.5838 15.2321 16.2125 15.0118L15.5651 15.521L15.5651 15.5208ZM10.796 12.2398C11.0266 12.1544 11.388 12.2236 11.3757 12.5564C11.3727 12.6318 11.4786 12.6318 11.4862 12.5548C11.5552 12.0564 11.2184 11.9128 10.8661 11.9712C10.8223 11.7999 10.7864 11.6501 10.7456 11.5016C10.7131 11.3815 10.7012 11.156 10.8402 11.156C10.9152 11.156 10.885 11.3659 10.8781 11.4562C10.8717 11.5355 10.9003 11.5835 10.9647 11.5858C11.0048 11.5874 11.0549 11.5362 11.0848 11.5022C11.2866 11.2741 11.3333 10.921 11.0971 10.7507C10.8994 10.6077 10.4043 10.7141 10.2682 10.9177C10.2477 10.841 10.1494 10.7144 10.1023 10.6592C10.0565 10.6054 10.0446 10.5685 10.108 10.5212C10.1378 10.4984 10.2281 10.4086 10.2281 10.3159C10.2281 10.2611 10.1856 10.1599 10.0506 10.1599C9.94405 10.1599 9.8256 10.2337 9.8256 10.3982C9.8256 10.4347 9.83455 10.4739 9.8581 10.516C9.79074 10.5049 9.60793 10.5095 9.51404 10.5327L10.8124 14.0956C11.184 13.9122 11.4564 13.6217 11.4564 13.31C11.4564 13.0443 11.0652 13.1325 10.8751 13.3397C10.814 13.0029 10.7596 12.6919 10.7002 12.3818C10.684 12.2963 10.7274 12.2657 10.7961 12.2399L10.796 12.2398ZM8.96016 9.81958L9.23291 10.5774C8.99933 10.6329 8.62374 10.8032 8.62374 11.0287C8.62374 11.329 9.15494 11.5245 9.46221 11.501C9.44693 11.5695 9.46455 11.6305 9.51232 11.6863C9.40084 11.6863 9.19049 11.7382 9.12145 11.8126C8.95854 11.6609 8.7037 11.6057 8.58258 11.6981C8.46083 11.7911 8.45721 11.9488 8.58426 12.1269C8.67283 12.2503 8.70604 12.3721 8.6065 12.515C8.97678 12.515 8.84038 12.0336 8.98539 12.0336C8.96649 12.1269 8.97809 12.235 9.02026 12.3548C9.04813 12.4344 9.04813 12.4908 9.00036 12.5675C8.88092 12.7585 8.69512 13.1971 8.72032 13.5936C8.59889 13.5929 8.53717 13.5632 8.57999 13.3975C8.59589 13.3357 8.55775 13.2917 8.50733 13.3678C8.45157 13.4516 8.42469 13.5949 8.42469 13.6562C8.42469 14.0094 8.84537 14.0805 9.00597 14.0058C9.47053 14.4553 10.383 14.3354 10.6886 14.1847L9.082 9.77642C9.04913 9.69322 8.93138 9.73301 8.96023 9.81952L8.96016 9.81958ZM8.9044 13.4507C8.87122 13.2692 9.12373 12.9448 9.44493 12.6318C9.37657 12.8358 9.41905 13.1873 9.55308 13.3084C9.32013 13.3084 9.04343 13.3521 8.90444 13.4507H8.9044Z" fill="#ACACAC"/>
</svg>
